<svg width="25" height="24" viewBox="0 0 25 24" fill="none" xmlns="http://www.w3.org/2000/svg">
<path d="M19.625 8V10.1C19.1274 10.0377 18.6265 10.0043 18.125 10V8C18.125 4.85 17.235 2.75 12.875 2.75C8.515 2.75 7.625 4.85 7.625 8V10C7.12349 10.0043 6.62265 10.0377 6.125 10.1L6.125 8C6.125 5.1 6.825 1.25 12.875 1.25C18.925 1.25 19.625 5.1 19.625 8Z" fill="#292D32"/>
<path opacity="0.4" d="M22.875 15V17C22.875 21 21.875 22 17.875 22H7.875C3.875 22 2.875 21 2.875 17V15C2.875 11.66 3.575 10.41 6.125 10.1C6.62265 10.0377 7.12349 10.0043 7.625 10L18.125 10C18.6265 10.0043 19.1274 10.0377 19.625 10.1C22.175 10.41 22.875 11.66 22.875 15Z" fill="#292D32"/>
<path d="M8.875 17.0011C8.74432 16.9996 8.61522 16.9724 8.495 16.9211C8.37262 16.8728 8.26061 16.8015 8.165 16.7111C7.98243 16.5194 7.87888 16.2659 7.875 16.0011C7.87645 15.8701 7.90363 15.7407 7.955 15.6201C8.00573 15.499 8.07675 15.3874 8.165 15.2901C8.26061 15.1997 8.37262 15.1285 8.495 15.0801C8.67711 15.0036 8.87782 14.9826 9.07181 15.02C9.2658 15.0574 9.44438 15.1514 9.585 15.2901C9.67325 15.3874 9.74427 15.499 9.795 15.6201C9.84637 15.7407 9.87355 15.8701 9.875 16.0011C9.87112 16.2659 9.76757 16.5194 9.585 16.7111C9.39326 16.8937 9.13973 16.9973 8.875 17.0011Z" fill="#292D32"/>
<path d="M12.875 17.0012C12.6102 16.9997 12.356 16.8967 12.165 16.7132C12.0767 16.6159 12.0057 16.5043 11.955 16.3832C11.9035 16.2623 11.8763 16.1325 11.875 16.0012C11.877 15.7361 11.9808 15.4819 12.165 15.2912C12.3584 15.1127 12.6119 15.0137 12.875 15.0137C13.1381 15.0137 13.3916 15.1127 13.585 15.2912C13.7692 15.4819 13.873 15.7361 13.875 16.0012C13.8734 16.1319 13.8462 16.261 13.795 16.3812C13.7443 16.5023 13.6733 16.6139 13.585 16.7112C13.3933 16.8938 13.1397 16.9973 12.875 17.0012Z" fill="#292D32"/>
<path d="M16.875 17.0012C16.6105 16.9978 16.3571 16.895 16.165 16.7132C15.9803 16.522 15.8765 16.267 15.875 16.0012C15.877 15.7361 15.9808 15.4819 16.165 15.2912C16.3584 15.1127 16.6119 15.0137 16.875 15.0137C17.1381 15.0137 17.3916 15.1127 17.585 15.2912C17.625 15.3412 17.665 15.3912 17.705 15.4512C17.7446 15.5022 17.7751 15.5597 17.795 15.6212C17.8239 15.6778 17.8441 15.7385 17.855 15.8012C17.8661 15.8673 17.8728 15.9341 17.875 16.0012C17.8711 16.2659 17.7676 16.5194 17.585 16.7112C17.3933 16.8938 17.1397 16.9973 16.875 17.0012Z" fill="#292D32"/>
</svg>
