<svg width="101" height="25" viewBox="0 0 101 25" fill="none" xmlns="http://www.w3.org/2000/svg">
<path d="M2.84037 12.279C3.82596 11.9489 4.83657 11.6988 5.86237 11.531C6.97982 11.2963 8.14392 11.4497 9.16237 11.966C9.46619 12.2004 9.7048 12.5089 9.85537 12.8618C10.0059 13.2148 10.0634 13.6005 10.0224 13.982H7.05537C5.18507 13.8399 3.31836 14.3 1.72837 15.295C1.16792 15.7225 0.718597 16.2786 0.418356 16.9164C0.118115 17.5541 -0.0242233 18.2547 0.00336599 18.959C-0.0104334 19.977 0.242262 20.9809 0.736366 21.871C1.2589 22.6522 1.99568 23.2661 2.85837 23.639C3.89279 24.0888 5.01273 24.3078 6.14037 24.281C9.14037 24.281 10.1054 22.646 10.1054 22.646V24.039H14.3634V14.667C14.3634 12.225 13.8144 10.367 12.5174 9.18704C11.7192 8.49538 10.7862 7.97686 9.77735 7.66428C8.76851 7.35169 7.70578 7.25184 6.65637 7.37104C4.77575 7.4722 2.92134 7.85792 1.15637 8.51504L2.84037 12.279ZM10.0254 18.66C9.91435 19.2719 9.57314 19.818 9.07189 20.1861C8.57064 20.5542 7.94743 20.7163 7.33037 20.639C6.64155 20.6763 5.95684 20.5116 5.36037 20.165C5.138 20.0327 4.95451 19.844 4.82843 19.618C4.70236 19.392 4.63818 19.1368 4.64237 18.878C4.64237 17.74 5.61937 17.171 7.57337 17.171H10.0244L10.0254 18.66Z" fill="#5733D1"/>
<path d="M29.4805 16.364C28.9285 15.6402 28.1867 15.0836 27.3375 14.756C26.5465 14.4537 25.7385 14.1982 24.9175 13.991C24.2369 13.8304 23.5735 13.6043 22.9365 13.316C22.2535 12.994 22.2535 12.644 22.2535 12.53C22.2492 12.3842 22.2841 12.2399 22.3544 12.1121C22.4248 11.9842 22.528 11.8775 22.6535 11.803C23.0023 11.5906 23.4063 11.4862 23.8145 11.503C24.2988 11.4778 24.779 11.6045 25.1879 11.8654C25.5968 12.1262 25.9141 12.5082 26.0955 12.958L26.2135 13.208L30.1485 11.062L30.0175 10.832C29.4148 9.75062 28.521 8.8599 27.4375 8.26104C26.328 7.65809 25.0831 7.34831 23.8205 7.36104C22.2304 7.30994 20.6704 7.80195 19.3975 8.75604C18.8082 9.20934 18.3359 9.79708 18.0202 10.4702C17.7044 11.1432 17.5543 11.8821 17.5825 12.625C17.5495 13.611 17.8654 14.577 18.4745 15.353C19.0378 16.0533 19.7735 16.595 20.6095 16.925C21.3995 17.2397 22.2076 17.5068 23.0295 17.725C23.7098 17.8955 24.3735 18.1267 25.0125 18.416C25.6965 18.739 25.6965 19.088 25.6965 19.203C25.6965 19.473 25.6965 20.295 23.7875 20.295C23.1713 20.3634 22.5507 20.2142 22.0329 19.8733C21.5152 19.5323 21.133 19.0211 20.9525 18.428L20.8525 18.128L16.8455 20.382L16.9455 20.601C18.1605 23.183 20.4615 24.493 23.7855 24.493C25.446 24.5497 27.0812 24.0743 28.4525 23.136C29.075 22.6918 29.5765 22.0989 29.9111 21.4112C30.2458 20.7235 30.403 19.963 30.3685 19.199C30.4019 18.1808 30.0889 17.1813 29.4805 16.364Z" fill="#5733D1"/>
<path d="M43.5843 12.2257V7.80566H32.7173V12.2257H35.4533V18.5067C35.4533 20.7437 36.0663 22.3267 37.2733 23.2137C38.4505 23.9411 39.8269 24.2795 41.2073 24.1807C41.9245 24.1765 42.641 24.1324 43.3533 24.0487L43.5843 24.0227V19.8357L43.3093 19.8507C42.6704 19.8917 42.0298 19.897 41.3903 19.8667C41.015 19.8699 40.65 19.7442 40.3563 19.5107C40.2364 19.3752 40.1455 19.2165 40.0895 19.0445C40.0334 18.8725 40.0132 18.6908 40.0303 18.5107V12.2257H43.5843Z" fill="#5733D1"/>
<path d="M56.3155 7.4906C55.2503 7.47887 54.2012 7.75158 53.2765 8.2806C52.6797 8.62403 52.1725 9.10375 51.7965 9.6806V7.8056H47.2185V24.0496H51.8005V16.2736C51.7425 15.6962 51.8362 15.1136 52.0723 14.5834C52.3083 14.0533 52.6786 13.5939 53.1465 13.2506C54.0725 12.6383 55.19 12.3848 56.2895 12.5376L56.5805 12.5726V7.4906H56.3155Z" fill="#5733D1"/>
<path d="M37.8815 6.16524C37.4796 6.16841 37.0814 6.08911 36.7114 5.93224C36.3414 5.77538 36.0076 5.54428 35.7305 5.25324C35.4392 4.9759 35.2079 4.64171 35.0511 4.27137C34.8942 3.90103 34.815 3.50242 34.8185 3.10024C34.8168 2.6958 34.8967 2.29518 35.0534 1.92232C35.2101 1.54947 35.4404 1.21205 35.7305 0.930237C36.005 0.634684 36.338 0.399403 36.7083 0.239311C37.0786 0.079218 37.4781 -0.00219395 37.8815 0.000236625C38.2912 -0.00494561 38.6975 0.0750442 39.0746 0.235136C39.4518 0.395227 39.7916 0.631929 40.0725 0.930237C40.3623 1.21221 40.5923 1.54968 40.7488 1.92251C40.9054 2.29534 40.9852 2.69589 40.9835 3.10024C40.9866 3.50199 40.9075 3.90014 40.7508 4.2701C40.5941 4.64006 40.3632 4.97397 40.0725 5.25124C39.7892 5.54534 39.4486 5.77821 39.0717 5.93542C38.6949 6.09263 38.2898 6.17085 37.8815 6.16524Z" fill="#00EBB0"/>
<path d="M66.8064 24.2827C64.9693 24.2803 63.2081 23.5494 61.9092 22.2502C60.6102 20.9511 59.8796 19.1898 59.8774 17.3527V7.80566H64.5634V17.3527C64.5758 17.9395 64.8176 18.4981 65.237 18.9087C65.6564 19.3193 66.22 19.5493 66.8069 19.5493C67.3939 19.5493 67.9575 19.3193 68.3769 18.9087C68.7962 18.4981 69.0381 17.9395 69.0504 17.3527V7.80566H73.7364V17.3527C73.7343 19.19 73.0035 20.9514 71.7044 22.2506C70.4052 23.5497 68.6437 24.2805 66.8064 24.2827Z" fill="#5733D1"/>
<path d="M93.0745 7.57331C91.383 7.57388 89.7507 8.19638 88.4885 9.32231C87.491 8.4347 86.2581 7.85468 84.9383 7.65225C83.6186 7.44981 82.2684 7.63361 81.0508 8.18146C79.8332 8.72932 78.8002 9.61782 78.0763 10.7398C77.3525 11.8617 76.9687 13.1691 76.9714 14.5043V24.0513H81.6574V14.5043C81.6511 14.2057 81.7045 13.9088 81.8144 13.6311C81.9243 13.3534 82.0886 13.1004 82.2976 12.887C82.5065 12.6736 82.756 12.5041 83.0313 12.3883C83.3066 12.2726 83.6023 12.2129 83.9009 12.2129C84.1996 12.2129 84.4953 12.2726 84.7706 12.3883C85.046 12.5041 85.2954 12.6736 85.5044 12.887C85.7133 13.1004 85.8776 13.3534 85.9875 13.6311C86.0974 13.9088 86.1508 14.2057 86.1444 14.5043V24.0513H90.8305V14.5043C90.8305 14.2097 90.8885 13.918 91.0012 13.6458C91.114 13.3736 91.2792 13.1262 91.4876 12.9179C91.6959 12.7096 91.9432 12.5443 92.2154 12.4316C92.4876 12.3188 92.7793 12.2608 93.0739 12.2608C93.3686 12.2608 93.6603 12.3188 93.9325 12.4316C94.2047 12.5443 94.452 12.7096 94.6603 12.9179C94.8687 13.1262 95.0339 13.3736 95.1467 13.6458C95.2594 13.918 95.3174 14.2097 95.3174 14.5043V24.0513H100.003V14.5043C100.002 12.667 99.271 10.9055 97.9721 9.60611C96.6731 8.30675 94.9118 7.57569 93.0745 7.57331Z" fill="#5733D1"/>
</svg>
