<svg width="380" height="380" viewBox="0 0 380 380" fill="none" xmlns="http://www.w3.org/2000/svg">
<circle cx="190" cy="190" r="190" fill="white"/>
<path opacity="0.2" d="M270 126H238L222 102H158L142 126H110C105.757 126 101.687 127.686 98.6863 130.686C95.6857 133.687 94 137.757 94 142V254C94 258.243 95.6857 262.313 98.6863 265.314C101.687 268.314 105.757 270 110 270H270C274.243 270 278.313 268.314 281.314 265.314C284.314 262.313 286 258.243 286 254V142C286 137.757 284.314 133.687 281.314 130.686C278.313 127.686 274.243 126 270 126V126ZM190 230C182.88 230 175.92 227.889 169.999 223.933C164.079 219.977 159.465 214.355 156.74 207.777C154.016 201.198 153.303 193.96 154.692 186.977C156.081 179.993 159.509 173.579 164.544 168.544C169.579 163.509 175.993 160.081 182.977 158.692C189.96 157.303 197.198 158.016 203.777 160.74C210.355 163.465 215.977 168.079 219.933 173.999C223.889 179.92 226 186.88 226 194C226 203.548 222.207 212.705 215.456 219.456C208.705 226.207 199.548 230 190 230V230Z" fill="black"/>
<path d="M270 118H242.3L228.7 97.6003C227.976 96.485 226.983 95.5702 225.812 94.9409C224.641 94.3116 223.329 93.9881 222 94.0003H158C156.671 93.9881 155.359 94.3116 154.188 94.9409C153.017 95.5702 152.024 96.485 151.3 97.6003L137.7 118H110C103.643 118.027 97.5537 120.564 93.0585 125.059C88.5633 129.554 86.0263 135.643 86 142V254C86.0263 260.357 88.5633 266.447 93.0585 270.942C97.5537 275.437 103.643 277.974 110 278H270C276.357 277.974 282.446 275.437 286.941 270.942C291.437 266.447 293.974 260.357 294 254V142C293.974 135.643 291.437 129.554 286.941 125.059C282.446 120.564 276.357 118.027 270 118V118ZM278 254C278 256.122 277.157 258.157 275.657 259.657C274.157 261.157 272.122 262 270 262H110C107.878 262 105.843 261.157 104.343 259.657C102.843 258.157 102 256.122 102 254V142C102 139.879 102.843 137.844 104.343 136.343C105.843 134.843 107.878 134 110 134H142C143.329 134.013 144.641 133.689 145.812 133.06C146.983 132.43 147.976 131.516 148.7 130.4L162.3 110H217.7L231.3 130.4C232.024 131.516 233.017 132.43 234.188 133.06C235.359 133.689 236.671 134.013 238 134H270C272.122 134 274.157 134.843 275.657 136.343C277.157 137.844 278 139.879 278 142V254Z" fill="black"/>
<path d="M190 150C181.298 150 172.791 152.581 165.555 157.415C158.319 162.25 152.68 169.122 149.349 177.162C146.019 185.202 145.148 194.049 146.845 202.584C148.543 211.119 152.734 218.959 158.887 225.113C165.041 231.266 172.881 235.457 181.416 237.155C189.951 238.852 198.798 237.981 206.838 234.651C214.878 231.32 221.75 225.681 226.585 218.445C231.419 211.209 234 202.702 234 194C234 182.33 229.364 171.139 221.113 162.887C212.861 154.636 201.67 150 190 150ZM190 222C184.462 222 179.049 220.358 174.444 217.281C169.839 214.204 166.251 209.831 164.131 204.715C162.012 199.599 161.458 193.969 162.538 188.537C163.618 183.106 166.285 178.117 170.201 174.201C174.117 170.285 179.106 167.618 184.537 166.538C189.969 165.458 195.599 166.012 200.715 168.131C205.831 170.251 210.204 173.839 213.281 178.444C216.358 183.049 218 188.462 218 194C217.974 201.418 215.015 208.525 209.77 213.77C204.525 219.015 197.418 221.974 190 222Z" fill="black"/>
</svg>
