<svg width="25" height="24" viewBox="0 0 25 24" fill="none" xmlns="http://www.w3.org/2000/svg">
<path opacity="0.4" d="M18.915 13.55C18.6994 13.7595 18.5335 14.0147 18.4296 14.2968C18.3258 14.5789 18.2866 14.8807 18.315 15.18C18.3797 15.7038 18.6364 16.1849 19.0354 16.5303C19.4344 16.8758 19.9474 17.0609 20.475 17.05H22.375V18.24C22.3729 19.2366 21.9761 20.1917 21.2714 20.8964C20.5667 21.6011 19.6116 21.9979 18.615 22H7.135C6.13844 21.9979 5.18329 21.6011 4.47861 20.8964C3.77393 20.1917 3.37711 19.2366 3.375 18.24L3.375 11.51C3.37711 10.5134 3.77393 9.55829 4.47861 8.85361C5.18329 8.14893 6.13844 7.75211 7.135 7.75L18.615 7.75C19.6116 7.75211 20.5667 8.14893 21.2714 8.85361C21.9761 9.55829 22.3729 10.5134 22.375 11.51V12.95H20.355C20.087 12.948 19.8213 13.0002 19.5739 13.1033C19.3264 13.2063 19.1023 13.3583 18.915 13.55Z" fill="#292D32"/>
<path d="M15.725 3.9489V7.7489H7.13501C6.13827 7.75102 5.18298 8.14798 4.47827 8.85287C3.77356 9.55777 3.37686 10.5132 3.37501 11.5099V7.8399C3.37372 7.26053 3.54916 6.69454 3.87792 6.21748C4.20669 5.74041 4.67313 5.37496 5.21501 5.1699L13.155 2.1699C13.4426 2.06152 13.7522 2.02453 14.0573 2.0621C14.3623 2.09967 14.6537 2.21069 14.9064 2.38562C15.1591 2.56055 15.3656 2.79418 15.5082 3.06646C15.6508 3.33875 15.7252 3.64155 15.725 3.9489Z" fill="#292D32"/>
<path d="M23.435 13.9702V16.0302C23.4333 16.2968 23.328 16.5522 23.1414 16.7426C22.9548 16.9329 22.7015 17.0432 22.435 17.0502H20.475C19.9474 17.0612 19.4344 16.876 19.0354 16.5306C18.6364 16.1851 18.3797 15.704 18.315 15.1802C18.2866 14.881 18.3258 14.5791 18.4296 14.297C18.5335 14.0149 18.6994 13.7597 18.915 13.5502C19.1023 13.3585 19.3264 13.2066 19.5739 13.1035C19.8213 13.0004 20.087 12.9483 20.355 12.9502H22.435C22.7015 12.9573 22.9548 13.0676 23.1414 13.2579C23.328 13.4483 23.4333 13.7037 23.435 13.9702Z" fill="#292D32"/>
<path d="M14.875 12.75H7.875C7.67649 12.7487 7.48649 12.6693 7.34612 12.5289C7.20575 12.3885 7.12631 12.1985 7.125 12C7.12631 11.8015 7.20575 11.6115 7.34612 11.4711C7.48649 11.3307 7.67649 11.2513 7.875 11.25H14.875C15.0735 11.2513 15.2635 11.3307 15.4039 11.4711C15.5443 11.6115 15.6237 11.8015 15.625 12C15.6237 12.1985 15.5443 12.3885 15.4039 12.5289C15.2635 12.6693 15.0735 12.7487 14.875 12.75Z" fill="#292D32"/>
</svg>
