<svg width="25" height="24" viewBox="0 0 25 24" fill="none" xmlns="http://www.w3.org/2000/svg">
<path opacity="0.4" d="M17.065 2H8.685C5.045 2 2.875 4.17 2.875 7.81V16.18C2.875 19.83 5.045 22 8.685 22H17.055C20.695 22 22.865 19.83 22.865 16.19V7.81C22.875 4.17 20.705 2 17.065 2Z" fill="#292D32"/>
<path d="M16.765 8.10849C16.1665 7.51175 15.3854 7.13251 14.5463 7.0312C13.7072 6.92989 12.8583 7.11235 12.135 7.5495C11.4116 7.98665 10.8554 8.65333 10.5549 9.44331C10.2544 10.2333 10.227 11.1011 10.477 11.9085L8.125 14.2615C8.03719 14.3623 7.97067 14.4798 7.92943 14.607C7.88819 14.7341 7.87307 14.8683 7.885 15.0015L8.035 16.0915C8.06972 16.2776 8.15995 16.4488 8.29381 16.5827C8.42767 16.7165 8.5989 16.8068 8.785 16.8415L9.877 17.0015C10.011 17.014 10.1461 16.9982 10.2736 16.9552C10.4011 16.9121 10.5181 16.8427 10.617 16.7515L11.027 16.3415C11.0507 16.3189 11.0695 16.2917 11.0823 16.2617C11.0952 16.2316 11.1018 16.1992 11.1018 16.1665C11.1018 16.1338 11.0952 16.1014 11.0823 16.0713C11.0695 16.0412 11.0507 16.0141 11.027 15.9915L10.057 15.0215C9.99076 14.9504 9.95469 14.8564 9.95641 14.7592C9.95812 14.6621 9.99748 14.5694 10.0662 14.5007C10.1349 14.432 10.2276 14.3926 10.3247 14.3909C10.4219 14.3892 10.5159 14.4253 10.587 14.4915L11.557 15.4615C11.605 15.5048 11.6673 15.5289 11.732 15.5289C11.7967 15.5289 11.859 15.5048 11.907 15.4615L12.965 14.4085C13.7743 14.6615 14.6451 14.6355 15.4379 14.3348C16.2307 14.0341 16.8997 13.476 17.3376 12.7499C17.7756 12.0239 17.9572 11.1718 17.8534 10.3303C17.7495 9.48871 17.3663 8.70635 16.765 8.10849ZM14.125 11.9985C13.8777 11.9981 13.6361 11.9244 13.4308 11.7866C13.2254 11.6489 13.0655 11.4534 12.9713 11.2248C12.8771 10.9961 12.8528 10.7447 12.9015 10.5023C12.9502 10.2599 13.0697 10.0373 13.2449 9.86284C13.4201 9.68835 13.6431 9.56973 13.8857 9.522C14.1283 9.47427 14.3797 9.49957 14.6079 9.5947C14.8361 9.68983 15.031 9.85051 15.1679 10.0564C15.3048 10.2623 15.3776 10.5042 15.377 10.7515C15.377 10.9158 15.3446 11.0785 15.2817 11.2303C15.2187 11.3821 15.1265 11.52 15.0102 11.6361C14.8939 11.7522 14.7559 11.8442 14.604 11.9069C14.4521 11.9696 14.2893 12.0018 14.125 12.0015V11.9985Z" fill="#292D32"/>
</svg>
