<svg width="36" height="36" viewBox="0 0 36 36" fill="none" xmlns="http://www.w3.org/2000/svg">
<path opacity="0.5" d="M33 18C33 20.9667 32.1203 23.8668 30.4721 26.3336C28.8238 28.8003 26.4812 30.7229 23.7403 31.8582C20.9994 32.9935 17.9834 33.2906 15.0737 32.7118C12.1639 32.133 9.49119 30.7044 7.3934 28.6066C5.29562 26.5088 3.86701 23.8361 3.28823 20.9264C2.70945 18.0166 3.0065 15.0006 4.14181 12.2597C5.27713 9.51886 7.19972 7.17618 9.66645 5.52796C12.1332 3.87973 15.0333 3 18 3C21.9783 3 25.7936 4.58035 28.6066 7.3934C31.4197 10.2064 33 14.0218 33 18Z" fill="#FFFF00"/>
<path opacity="0.4" d="M24.39 19.5282L20.158 11.9102C19.9674 11.4675 19.6592 11.0855 19.2667 10.8058C18.8743 10.526 18.4126 10.3591 17.932 10.3232C17.4528 10.3605 16.9928 10.528 16.6019 10.8077C16.211 11.0874 15.9039 11.4687 15.714 11.9102L11.482 19.5282C11.2228 19.9139 11.0708 20.3616 11.0418 20.8254C11.0128 21.2892 11.1078 21.7523 11.317 22.1672C11.5768 22.5529 11.9353 22.8618 12.3552 23.0618C12.775 23.2618 13.2408 23.3455 13.704 23.3042H22.169C22.6322 23.3455 23.098 23.2618 23.5178 23.0618C23.9376 22.8618 24.2962 22.5529 24.556 22.1672C24.765 21.7522 24.8598 21.289 24.8307 20.8252C24.8015 20.3615 24.6494 19.9138 24.39 19.5282V19.5282Z" fill="#292D32"/>
<path d="M17.94 18.7561C17.8074 18.7561 17.6802 18.7034 17.5864 18.6096C17.4927 18.5158 17.44 18.3887 17.44 18.2561V14.9561C17.44 14.8234 17.4927 14.6963 17.5864 14.6025C17.6802 14.5087 17.8074 14.4561 17.94 14.4561C18.0726 14.4561 18.1998 14.5087 18.2936 14.6025C18.3873 14.6963 18.44 14.8234 18.44 14.9561V18.2561C18.44 18.3887 18.3873 18.5158 18.2936 18.6096C18.1998 18.7034 18.0726 18.7561 17.94 18.7561V18.7561Z" fill="#292D32"/>
<path d="M17.935 20.903C17.8907 20.9016 17.8466 20.8973 17.803 20.89C17.7615 20.8827 17.7214 20.8692 17.684 20.85C17.6418 20.8354 17.6018 20.8152 17.565 20.79L17.465 20.711C17.345 20.584 17.2769 20.4167 17.274 20.242C17.2769 20.0668 17.3454 19.8991 17.466 19.772L17.566 19.693C17.6025 19.6682 17.6422 19.6484 17.684 19.634C17.7214 19.6148 17.7615 19.6013 17.803 19.594C17.8878 19.5741 17.9761 19.5741 18.061 19.594C18.1049 19.6003 18.1475 19.6138 18.187 19.634C18.2292 19.6486 18.2692 19.6688 18.306 19.694L18.406 19.773C18.5265 19.9001 18.5951 20.0678 18.598 20.243C18.5951 20.4182 18.5265 20.5859 18.406 20.713L18.306 20.792C18.2692 20.8172 18.2292 20.8374 18.187 20.852C18.1475 20.8722 18.1049 20.8857 18.061 20.892C18.0193 20.8989 17.9772 20.9026 17.935 20.903V20.903Z" fill="#292D32"/>
</svg>
