<svg width="36" height="36" viewBox="0 0 36 36" fill="none" xmlns="http://www.w3.org/2000/svg">
<path opacity="0.5" d="M33 18C33 20.9667 32.1203 23.8668 30.4721 26.3336C28.8238 28.8003 26.4812 30.7229 23.7403 31.8582C20.9994 32.9935 17.9834 33.2906 15.0737 32.7118C12.1639 32.133 9.49119 30.7044 7.3934 28.6066C5.29562 26.5088 3.86701 23.8361 3.28823 20.9264C2.70945 18.0166 3.0065 15.0006 4.14181 12.2597C5.27713 9.51886 7.19972 7.17618 9.66645 5.52796C12.1332 3.87973 15.0333 3 18 3C21.9783 3 25.7936 4.58035 28.6066 7.3934C31.4197 10.2064 33 14.0218 33 18Z" fill="#FF0000"/>
<path opacity="0.4" d="M21.532 16.2927H14.469C13.9562 16.2519 13.4406 16.3228 12.9579 16.5007C12.4752 16.6785 12.0368 16.959 11.673 17.3227C11.3093 17.6865 11.0288 18.1249 10.851 18.6076C10.6731 19.0903 10.6022 19.6059 10.643 20.1187V22.0247C10.6014 22.538 10.6718 23.0542 10.8493 23.5377C11.0268 24.0211 11.3071 24.4602 11.6709 24.8247C12.0347 25.1892 12.4734 25.4703 12.9565 25.6487C13.4396 25.827 13.9556 25.8983 14.469 25.8577H21.525C22.0378 25.8986 22.5534 25.8276 23.0361 25.6498C23.5189 25.472 23.9572 25.1915 24.321 24.8277C24.6848 24.4639 24.9652 24.0256 25.1431 23.5428C25.3209 23.0601 25.3919 22.5445 25.351 22.0317V20.1187C25.3933 19.6062 25.3236 19.0906 25.1467 18.6077C24.9698 18.1248 24.69 17.6861 24.3267 17.3221C23.9634 16.9582 23.5253 16.6776 23.0427 16.4998C22.5601 16.3221 22.0446 16.2514 21.532 16.2927V16.2927Z" fill="#292D32"/>
<path d="M20.855 13.7687L18.385 11.3037C18.2811 11.2011 18.141 11.1436 17.995 11.1436C17.849 11.1436 17.7089 11.2011 17.605 11.3037L15.145 13.7687C15.0938 13.8199 15.0532 13.8807 15.0254 13.9476C14.9977 14.0145 14.9835 14.0863 14.9835 14.1587C14.9835 14.2311 14.9977 14.3028 15.0254 14.3697C15.0532 14.4367 15.0938 14.4975 15.145 14.5487C15.1962 14.5999 15.257 14.6405 15.3239 14.6682C15.3909 14.696 15.4626 14.7102 15.535 14.7102C15.6074 14.7102 15.6792 14.696 15.7461 14.6682C15.813 14.6405 15.8738 14.5999 15.925 14.5487L17.448 13.0257V20.8907C17.4598 21.0285 17.5228 21.1568 17.6246 21.2503C17.7265 21.3438 17.8597 21.3957 17.998 21.3957C18.1363 21.3957 18.2695 21.3438 18.3714 21.2503C18.4732 21.1568 18.5362 21.0285 18.548 20.8907V13.0257L20.075 14.5437C20.1262 14.5949 20.187 14.6355 20.2539 14.6632C20.3209 14.691 20.3926 14.7052 20.465 14.7052C20.5374 14.7052 20.6092 14.691 20.6761 14.6632C20.743 14.6355 20.8038 14.5949 20.855 14.5437C20.9062 14.4925 20.9468 14.4317 20.9746 14.3647C21.0023 14.2978 21.0165 14.2261 21.0165 14.1537C21.0165 14.0813 21.0023 14.0095 20.9746 13.9426C20.9468 13.8757 20.9062 13.8149 20.855 13.7637V13.7687Z" fill="#292D32"/>
</svg>
