<svg width="24" height="24" viewBox="0 0 24 24" fill="none" xmlns="http://www.w3.org/2000/svg">
<path opacity="0.4" d="M16.19 2H7.81999C4.17999 2 2.00999 4.17 2.00999 7.81V16.18C2.00999 19.82 4.17999 21.99 7.81999 21.99H16.19C19.83 21.99 22 19.82 22 16.18V7.81C22 4.17 19.83 2 16.19 2Z" fill="#292D32"/>
<path d="M9.16999 14.0899C9.26852 14.0903 9.36612 14.071 9.45712 14.0332C9.54812 13.9955 9.63068 13.94 9.69999 13.8699L14.08 9.48994V11.9199C14.08 12.1189 14.159 12.3096 14.2997 12.4503C14.4403 12.5909 14.6311 12.6699 14.83 12.6699C15.0289 12.6699 15.2197 12.5909 15.3603 12.4503C15.501 12.3096 15.58 12.1189 15.58 11.9199V7.67994C15.5794 7.58025 15.559 7.48168 15.52 7.38994C15.4416 7.20633 15.296 7.05965 15.113 6.97994C15.0209 6.9397 14.9215 6.91926 14.821 6.91994H10.58C10.3815 6.92125 10.1915 7.00069 10.0511 7.14106C9.91074 7.28143 9.8313 7.47143 9.82999 7.66994C9.8313 7.86845 9.91074 8.05845 10.0511 8.19882C10.1915 8.33919 10.3815 8.41863 10.58 8.41994H13.013L8.63099 12.7999C8.52706 12.9067 8.45682 13.0418 8.42902 13.1882C8.40122 13.3346 8.41708 13.4859 8.47463 13.6234C8.53217 13.7609 8.62887 13.8784 8.75268 13.9614C8.8765 14.0443 9.02196 14.089 9.17099 14.0899H9.16999Z" fill="#292D32"/>
<path d="M18.71 16.2801C18.6785 16.1868 18.629 16.1007 18.5642 16.0266C18.4994 15.9524 18.4207 15.8918 18.3324 15.8482C18.2442 15.8045 18.1482 15.7787 18.05 15.7722C17.9518 15.7656 17.8532 15.7785 17.76 15.8101C14.0167 17.0501 9.97332 17.0501 6.23001 15.8101C6.0417 15.7464 5.83583 15.7602 5.65767 15.8483C5.47951 15.9365 5.34366 16.0918 5.28001 16.2801C5.21635 16.4684 5.23011 16.6743 5.31826 16.8524C5.4064 17.0306 5.5617 17.1664 5.75001 17.2301C7.76226 17.8997 9.86926 18.2407 11.99 18.2401C14.1108 18.2407 16.2177 17.8997 18.23 17.2301C18.4194 17.1675 18.5763 17.0323 18.6663 16.8543C18.7562 16.6762 18.772 16.4697 18.71 16.2801V16.2801Z" fill="#292D32"/>
</svg>
