<svg width="24" height="24" viewBox="0 0 24 24" fill="none" xmlns="http://www.w3.org/2000/svg">
<path opacity="0.4" d="M21.37 11.3904V17.3804C21.37 18.7064 20.8432 19.9782 19.9055 20.9159C18.9679 21.8536 17.6961 22.3804 16.37 22.3804H7.63C6.30392 22.3804 5.03215 21.8536 4.09447 20.9159C3.15679 19.9782 2.63 18.7064 2.63 17.3804V11.4604C3.0153 11.8718 3.48171 12.1988 3.99979 12.4208C4.51787 12.6429 5.07637 12.7551 5.64 12.7504C6.26814 12.7432 6.8862 12.5915 7.44632 12.3071C8.00643 12.0227 8.49357 11.6132 8.87 11.1104C9.21703 11.6196 9.6841 12.0356 10.23 12.3217C10.7759 12.6077 11.3838 12.7549 12 12.7504C12.6096 12.7578 13.2118 12.6159 13.7539 12.337C14.296 12.0581 14.7616 11.6507 15.11 11.1504C15.4878 11.6415 15.972 12.0407 16.5263 12.3178C17.0805 12.5949 17.6904 12.7428 18.31 12.7504C18.8881 12.7589 19.4612 12.6417 19.9896 12.4069C20.5179 12.1721 20.989 11.8252 21.37 11.3904V11.3904Z" fill="#292D32"/>
<path d="M14.99 1.25H8.99L8.25 8.61C8.18614 9.25762 8.28585 9.91092 8.54 10.51C8.83354 11.1815 9.31806 11.7519 9.93325 12.1502C10.5484 12.5484 11.2672 12.757 12 12.75C12.7337 12.7613 13.4544 12.5557 14.0717 12.159C14.689 11.7622 15.1755 11.1921 15.47 10.52C15.6586 10.0628 15.7604 9.57447 15.77 9.08V8.89L14.99 1.25Z" fill="#292D32"/>
<path opacity="0.6" d="M22.36 8.27L22.07 5.5C21.65 2.48 20.28 1.25 17.35 1.25H13.51L14.25 8.75C14.2641 8.88286 14.2708 9.0164 14.27 9.15C14.3271 9.65243 14.4835 10.1385 14.73 10.58C15.0805 11.2268 15.5969 11.7687 16.226 12.15C16.8551 12.5314 17.5744 12.7384 18.31 12.75C18.9473 12.7606 19.5778 12.6181 20.1485 12.3345C20.7193 12.0509 21.2136 11.6344 21.59 11.12C22.1941 10.2998 22.4689 9.28287 22.36 8.27Z" fill="#292D32"/>
<path opacity="0.6" d="M6.58999 1.25C3.64999 1.25 2.28999 2.48 1.85999 5.53L1.58999 8.28C1.48106 9.32228 1.77439 10.3668 2.40999 11.2C2.79136 11.6911 3.28169 12.0868 3.84227 12.3558C4.40284 12.6248 5.01829 12.7597 5.63999 12.75C6.37203 12.7394 7.08816 12.5348 7.71533 12.1571C8.34249 11.7794 8.85825 11.2421 9.20999 10.6C9.47651 10.137 9.64022 9.62195 9.68999 9.09L10.471 1.26H6.58999V1.25Z" fill="#292D32"/>
<path d="M11.35 16.66C10.7365 16.7267 10.1694 17.0179 9.75767 17.4775C9.34599 17.9372 9.11886 18.5329 9.12 19.15V22.38H14.87V19.5C14.88 17.41 13.65 16.425 11.35 16.66Z" fill="#292D32"/>
</svg>
