<svg width="23" height="22" viewBox="0 0 23 22" fill="none" xmlns="http://www.w3.org/2000/svg">
<path opacity="0.4" d="M9.12701 6.60324V15.3902C9.0752 16.0295 9.16284 16.6725 9.38385 17.2746C9.60487 17.8767 9.95399 18.4236 10.4071 18.8776C10.8602 19.3315 11.4065 19.6817 12.0082 19.9038C12.6099 20.126 13.2526 20.2148 13.892 20.1642H16.265C16.9035 20.2147 17.5453 20.1261 18.1461 19.9044C18.747 19.6828 19.2926 19.3334 19.7454 18.8804C20.1981 18.4274 20.5471 17.8815 20.7684 17.2805C20.9897 16.6795 21.0779 16.0377 21.027 15.3992V6.59924C21.079 5.96152 20.9918 5.32011 20.7715 4.71941C20.5511 4.11872 20.2029 3.57308 19.7508 3.12026C19.2988 2.66745 18.7537 2.31828 18.1534 2.09692C17.5531 1.87556 16.9118 1.78729 16.274 1.83824H13.892C13.2533 1.78729 12.6112 1.87559 12.0099 2.09704C11.4087 2.31848 10.8627 2.6678 10.4096 3.12086C9.95657 3.57392 9.60725 4.11993 9.3858 4.72116C9.16436 5.3224 9.07606 5.96455 9.12701 6.60324Z" fill="#FF0000"/>
<path d="M5.984 7.44494L2.915 10.5149C2.78731 10.6443 2.71571 10.8187 2.71571 11.0004C2.71571 11.1822 2.78731 11.3566 2.915 11.4859L5.985 14.5559C6.04793 14.6233 6.12378 14.6773 6.20802 14.7148C6.29226 14.7522 6.38318 14.7723 6.47535 14.7739C6.56753 14.7755 6.65908 14.7585 6.74455 14.7239C6.83002 14.6894 6.90766 14.638 6.97285 14.5728C7.03803 14.5076 7.08944 14.43 7.12399 14.3445C7.15854 14.259 7.17554 14.1675 7.17396 14.0753C7.17239 13.9831 7.15229 13.8922 7.11484 13.808C7.07739 13.7237 7.02338 13.6479 6.956 13.5849L5.056 11.6849H14.856C15.0382 11.6849 15.2129 11.6126 15.3418 11.4837C15.4706 11.3549 15.543 11.1801 15.543 10.9979C15.543 10.8157 15.4706 10.641 15.3418 10.5122C15.2129 10.3833 15.0382 10.3109 14.856 10.3109H5.056L6.956 8.41094C7.01992 8.34725 7.07052 8.27148 7.10485 8.18804C7.13919 8.1046 7.15658 8.01516 7.156 7.92494C7.15743 7.83459 7.14044 7.7449 7.10605 7.66134C7.07166 7.57778 7.02061 7.50211 6.956 7.43894C6.89264 7.374 6.81682 7.3225 6.7331 7.28752C6.64938 7.25254 6.55946 7.2348 6.46873 7.23536C6.378 7.23592 6.28831 7.25477 6.20502 7.29078C6.12174 7.32679 6.04657 7.37922 5.984 7.44494Z" fill="#FF0000"/>
</svg>
