<svg width="24" height="24" viewBox="0 0 24 24" fill="none" xmlns="http://www.w3.org/2000/svg">
<path opacity="0.4" d="M22.0315 12.1909C22.0315 14.1372 21.4544 16.0397 20.3731 17.658C19.2918 19.2762 17.755 20.5375 15.9569 21.2823C14.1588 22.027 12.1802 22.2219 10.2714 21.8422C8.36255 21.4625 6.60916 20.5253 5.23296 19.1491C3.85676 17.7729 2.91956 16.0195 2.53987 14.1107C2.16018 12.2019 2.35505 10.2233 3.09984 8.4252C3.84463 6.62711 5.1059 5.09026 6.72414 4.00899C8.34238 2.92771 10.2449 2.35059 12.1911 2.35059C14.801 2.35059 17.3039 3.38734 19.1493 5.23276C20.9948 7.07819 22.0315 9.58112 22.0315 12.1909Z" fill="#292D32"/>
<path d="M15.6652 11.1781L12.7124 8.22251C12.5735 8.08556 12.3862 8.00879 12.1911 8.00879C11.9961 8.00879 11.8088 8.08556 11.6699 8.22251L8.71432 11.1781C8.57606 11.3168 8.49858 11.5047 8.49891 11.7006C8.49924 11.8964 8.57736 12.0841 8.71607 12.2224C8.85479 12.3606 9.04275 12.4381 9.23859 12.4378C9.43444 12.4374 9.62213 12.3593 9.76039 12.2206L11.4542 10.5282V15.6356C11.4625 15.8257 11.5438 16.0052 11.6813 16.1368C11.8187 16.2683 12.0016 16.3418 12.1918 16.3418C12.3821 16.3418 12.565 16.2683 12.7024 16.1368C12.8399 16.0052 12.9212 15.8257 12.9295 15.6356V10.5282L14.6219 12.2206C14.6903 12.2893 14.7716 12.3438 14.8611 12.381C14.9506 12.4181 15.0466 12.4373 15.1435 12.4373C15.2405 12.4373 15.3364 12.4181 15.426 12.381C15.5155 12.3438 15.5968 12.2893 15.6652 12.2206C15.8021 12.0817 15.8789 11.8944 15.8789 11.6993C15.8789 11.5043 15.8021 11.317 15.6652 11.1781Z" fill="#292D32"/>
</svg>
