<svg width="36" height="36" viewBox="0 0 36 36" fill="none" xmlns="http://www.w3.org/2000/svg">
<path opacity="0.5" d="M33 18C33 20.9667 32.1203 23.8668 30.4721 26.3336C28.8238 28.8003 26.4812 30.7229 23.7403 31.8582C20.9994 32.9935 17.9834 33.2906 15.0737 32.7118C12.1639 32.133 9.49119 30.7044 7.3934 28.6066C5.29562 26.5088 3.86701 23.8361 3.28823 20.9264C2.70945 18.0166 3.0065 15.0006 4.14181 12.2597C5.27713 9.51886 7.19972 7.17618 9.66645 5.52796C12.1332 3.87973 15.0333 3 18 3C21.9783 3 25.7936 4.58035 28.6066 7.3934C31.4197 10.2064 33 14.0218 33 18Z" fill="#00FF00"/>
<path opacity="0.4" d="M21.532 15.7927H14.469C13.9562 15.7519 13.4406 15.8228 12.9579 16.0007C12.4752 16.1785 12.0368 16.459 11.673 16.8227C11.3093 17.1865 11.0288 17.6249 10.851 18.1076C10.6731 18.5903 10.6022 19.1059 10.643 19.6187V21.5247C10.6014 22.038 10.6718 22.5542 10.8493 23.0377C11.0268 23.5211 11.3071 23.9602 11.6709 24.3247C12.0347 24.6892 12.4734 24.9703 12.9565 25.1487C13.4396 25.327 13.9556 25.3983 14.469 25.3577H21.525C22.0378 25.3986 22.5534 25.3276 23.0361 25.1498C23.5189 24.972 23.9572 24.6915 24.321 24.3277C24.6848 23.9639 24.9652 23.5256 25.1431 23.0428C25.3209 22.5601 25.3919 22.0445 25.351 21.5317V19.6187C25.3933 19.1062 25.3236 18.5906 25.1467 18.1077C24.9698 17.6248 24.69 17.1861 24.3267 16.8221C23.9634 16.4582 23.5253 16.1776 23.0427 15.9998C22.5601 15.8221 22.0446 15.7514 21.532 15.7927V15.7927Z" fill="#292D32"/>
<path d="M20.855 18.3165L18.385 20.7815C18.2811 20.8841 18.141 20.9416 17.995 20.9416C17.849 20.9416 17.7089 20.8841 17.605 20.7815L15.145 18.3165C15.0416 18.2131 14.9835 18.0728 14.9835 17.9265C14.9835 17.7802 15.0416 17.6399 15.145 17.5365C15.2484 17.4331 15.3887 17.375 15.535 17.375C15.6813 17.375 15.8216 17.4331 15.925 17.5365L17.448 19.0595V11.1945C17.4598 11.0567 17.5228 10.9284 17.6246 10.8349C17.7265 10.7413 17.8597 10.6895 17.998 10.6895C18.1363 10.6895 18.2695 10.7413 18.3714 10.8349C18.4732 10.9284 18.5362 11.0567 18.548 11.1945V19.0595L20.075 17.5365C20.1784 17.4331 20.3187 17.375 20.465 17.375C20.6113 17.375 20.7516 17.4331 20.855 17.5365C20.9584 17.6399 21.0165 17.7802 21.0165 17.9265C21.0165 18.0728 20.9584 18.2131 20.855 18.3165V18.3165Z" fill="#292D32"/>
</svg>
