<svg width="25" height="24" viewBox="0 0 25 24" fill="none" xmlns="http://www.w3.org/2000/svg">
<path opacity="0.4" d="M19.255 12.8398V17.7698C19.2234 18.4316 19.0006 19.0699 18.6137 19.6077C18.2268 20.1455 17.6924 20.5595 17.075 20.7998L13.885 21.8598C13.2251 22.0498 12.5249 22.0498 11.865 21.8598L8.675 20.7998C8.05649 20.5613 7.52091 20.1476 7.13375 19.6095C6.74659 19.0714 6.52462 18.4321 6.495 17.7698L6.505 12.8398L10.925 15.7198C11.5229 16.0686 12.2028 16.2524 12.895 16.2524C13.5872 16.2524 14.267 16.0686 14.865 15.7198L19.255 12.8398Z" fill="#292D32"/>
<path d="M20.858 6.45964L14.865 2.52864C14.2671 2.17987 13.5872 1.99609 12.895 1.99609C12.2028 1.99609 11.523 2.17987 10.925 2.52864L4.905 6.45864C4.46053 6.74802 4.09532 7.14378 3.84252 7.61003C3.58971 8.07628 3.45731 8.59826 3.45731 9.12864C3.45731 9.65902 3.58971 10.181 3.84252 10.6473C4.09532 11.1135 4.46053 11.5093 4.905 11.7986L6.505 12.8386L10.925 15.7186C11.523 16.0674 12.2028 16.2512 12.895 16.2512C13.5872 16.2512 14.2671 16.0674 14.865 15.7186L19.255 12.8386L20.625 11.9386V14.9966C20.625 15.1956 20.704 15.3863 20.8447 15.527C20.9853 15.6676 21.1761 15.7466 21.375 15.7466C21.5739 15.7466 21.7647 15.6676 21.9053 15.527C22.046 15.3863 22.125 15.1956 22.125 14.9966V10.0786C22.3372 9.41976 22.3282 8.7096 22.0995 8.05628C21.8708 7.40296 21.4348 6.84229 20.858 6.45964Z" fill="#292D32"/>
</svg>
