<svg width="36" height="36" viewBox="0 0 36 36" fill="none" xmlns="http://www.w3.org/2000/svg">
<path opacity="0.4" d="M17.9999 33C26.2842 33 32.9999 26.2843 32.9999 18C32.9999 9.71573 26.2842 3 17.9999 3C9.71567 3 2.99994 9.71573 2.99994 18C2.99994 26.2843 9.71567 33 17.9999 33Z" fill="#00FF00"/>
<path d="M18 20.625C18.615 20.625 19.125 20.115 19.125 19.5V12C19.125 11.385 18.615 10.875 18 10.875C17.385 10.875 16.875 11.385 16.875 12V19.5C16.875 20.115 17.385 20.625 18 20.625Z" fill="#292D32"/>
<path opacity="0.4" d="M19.3799 23.4303C19.3049 23.2503 19.1999 23.0853 19.0649 22.9353C18.9149 22.8003 18.7499 22.6953 18.5699 22.6203C18.2099 22.4703 17.7899 22.4703 17.4299 22.6203C17.2499 22.6953 17.0849 22.8003 16.9349 22.9353C16.7999 23.0853 16.6949 23.2503 16.6199 23.4303C16.5449 23.6103 16.4999 23.8053 16.4999 24.0003C16.4999 24.1953 16.5449 24.3903 16.6199 24.5703C16.6949 24.7653 16.7999 24.9153 16.9349 25.0653C17.0849 25.2003 17.2499 25.3053 17.4299 25.3803C17.6099 25.4553 17.8049 25.5003 17.9999 25.5003C18.1949 25.5003 18.3899 25.4553 18.5699 25.3803C18.7499 25.3053 18.9149 25.2003 19.0649 25.0653C19.1999 24.9153 19.3049 24.7653 19.3799 24.5703C19.4549 24.3903 19.4999 24.1953 19.4999 24.0003C19.4999 23.8053 19.4549 23.6103 19.3799 23.4303Z" fill="#292D32"/>
</svg>
