<svg width="113" height="113" viewBox="0 0 113 113" fill="none" xmlns="http://www.w3.org/2000/svg">
<path opacity="0.4" d="M103.498 56.4473C103.498 65.743 100.741 74.83 95.5771 82.5591C90.4126 90.2882 83.0722 96.3123 74.4841 99.8696C65.896 103.427 56.4459 104.358 47.3287 102.544C38.2116 100.731 29.837 96.2543 23.264 89.6813C16.6909 83.1082 12.2146 74.7336 10.4011 65.6165C8.58758 56.4994 9.51834 47.0493 13.0757 38.4611C16.633 29.873 22.6571 22.5326 30.3862 17.3682C38.1153 12.2038 47.2023 9.44727 56.498 9.44727C68.9632 9.44727 80.9178 14.399 89.732 23.2132C98.5462 32.0275 103.498 43.9821 103.498 56.4473Z" fill="#A1A3A5"/>
<path d="M56.501 32.6186C54.1897 32.6031 51.8981 33.0431 49.7568 33.9133C47.6156 34.7835 45.6667 36.067 44.0215 37.6904C40.6988 40.969 38.8147 45.4332 38.7835 50.1011C38.7523 54.7689 40.5767 59.2579 43.8553 62.5806C47.1339 65.9032 51.5982 67.7874 56.266 67.8186H57.112C61.7103 67.6365 66.0545 65.6613 69.2146 62.3159C72.3747 58.9706 74.0995 54.521 74.0196 49.9198C73.9397 45.3186 72.0616 40.9315 68.7873 37.6978C65.513 34.4642 61.1028 32.641 56.501 32.6186Z" fill="#A1A3A5"/>
<path d="M88.368 90.994C79.6939 99.0129 68.3127 103.462 56.5 103.452C44.6876 103.462 33.3068 99.0126 24.633 90.994C25.761 86.719 28.816 82.818 33.281 79.81C46.113 71.256 66.981 71.256 79.719 79.81C84.233 82.818 87.24 86.719 88.368 90.994Z" fill="#A1A3A5"/>
</svg>
