<svg width="24" height="24" viewBox="0 0 24 24" fill="none" xmlns="http://www.w3.org/2000/svg">
<g clip-path="url(#clip0_305_2)">
<path opacity="0.4" d="M22 11.9004C22 13.8782 21.4135 15.8116 20.3147 17.4561C19.2159 19.1006 17.6541 20.3823 15.8268 21.1392C13.9996 21.8961 11.9889 22.0941 10.0491 21.7082C8.10929 21.3224 6.32746 20.37 4.92894 18.9715C3.53041 17.5729 2.578 15.7911 2.19215 13.8513C1.8063 11.9115 2.00433 9.90082 2.76121 8.07356C3.51809 6.2463 4.79981 4.68451 6.4443 3.58569C8.08879 2.48688 10.0222 1.90039 12 1.90039C14.6522 1.90039 17.1957 2.95396 19.0711 4.82932C20.9464 6.70469 22 9.24823 22 11.9004Z" fill="#292D32"/>
<path d="M14.26 12L12.75 11.47V8.08H13.11C13.514 8.09589 13.8953 8.27095 14.1707 8.56696C14.4461 8.86297 14.5932 9.2559 14.58 9.66C14.58 9.85891 14.659 10.0497 14.7997 10.1903C14.9403 10.331 15.1311 10.41 15.33 10.41C15.5289 10.41 15.7197 10.331 15.8603 10.1903C16.001 10.0497 16.08 9.85891 16.08 9.66C16.0942 8.85783 15.7893 8.08285 15.2324 7.50532C14.6755 6.9278 13.9121 6.59498 13.11 6.58H12.75V6C12.75 5.80109 12.671 5.61032 12.5303 5.46967C12.3897 5.32902 12.1989 5.25 12 5.25C11.8011 5.25 11.6103 5.32902 11.4697 5.46967C11.329 5.61032 11.25 5.80109 11.25 6V6.58H10.6C9.87528 6.59394 9.18554 6.89416 8.6815 7.41507C8.17745 7.93598 7.90008 8.63522 7.91 9.36C7.85629 9.94492 8.01026 10.5301 8.34489 11.0128C8.67951 11.4955 9.17343 11.845 9.74 12L11.25 12.53V15.91H10.89C10.486 15.8941 10.1047 15.7191 9.82928 15.423C9.55387 15.127 9.40674 14.7341 9.42 14.33C9.41868 14.1315 9.33925 13.9415 9.19888 13.8011C9.05851 13.6607 8.8685 13.5813 8.67 13.58C8.47149 13.5813 8.28148 13.6607 8.14111 13.8011C8.00074 13.9415 7.92131 14.1315 7.92 14.33C7.90581 15.1322 8.21065 15.9072 8.76755 16.4847C9.32445 17.0622 10.0878 17.395 10.89 17.41H11.25V18C11.25 18.1989 11.329 18.3897 11.4697 18.5303C11.6103 18.671 11.8011 18.75 12 18.75C12.1989 18.75 12.3897 18.671 12.5303 18.5303C12.671 18.3897 12.75 18.1989 12.75 18V17.42H13.4C14.1247 17.4061 14.8144 17.1058 15.3185 16.5849C15.8225 16.064 16.0999 15.3648 16.09 14.64C16.1437 14.0551 15.9897 13.4699 15.6551 12.9872C15.3205 12.5045 14.8266 12.155 14.26 12ZM10.24 10.59C9.73 10.41 9.42 10.24 9.42 9.37C9.41384 9.20776 9.43977 9.0459 9.49629 8.8937C9.5528 8.74149 9.6388 8.60194 9.74935 8.48303C9.85989 8.36412 9.99282 8.2682 10.1405 8.20075C10.2882 8.13331 10.4477 8.09567 10.61 8.09H11.26V10.95L10.24 10.59ZM13.4 15.92H12.75V13.06L13.76 13.41C14.27 13.59 14.58 13.76 14.58 14.63C14.5933 14.9572 14.4767 15.2764 14.2557 15.5181C14.0347 15.7597 13.7271 15.9042 13.4 15.92Z" fill="#292D32"/>
</g>
<defs>
<clipPath id="clip0_305_2">
<rect width="24" height="24" fill="white"/>
</clipPath>
</defs>
</svg>
