<svg width="25" height="24" viewBox="0 0 25 24" fill="none" xmlns="http://www.w3.org/2000/svg">
<path opacity="0.4" d="M11.365 2.22956L6.37497 4.09656C5.77881 4.35437 5.26691 4.77423 4.89746 5.30844C4.528 5.84264 4.3158 6.46978 4.28497 7.11856L4.28497 14.5486C4.32391 15.2095 4.49743 15.8556 4.79492 16.4471C5.0924 17.0387 5.50757 17.5632 6.01497 17.9886L10.315 21.1986C11.072 21.7164 11.9678 21.9935 12.885 21.9935C13.8022 21.9935 14.698 21.7164 15.455 21.1986L19.755 17.9886C20.2624 17.5632 20.6775 17.0387 20.975 16.4471C21.2725 15.8556 21.446 15.2095 21.485 14.5486V7.11856C21.4541 6.46978 21.2419 5.84264 20.8725 5.30844C20.503 4.77423 19.9911 4.35437 19.395 4.09656L14.405 2.22956C13.4153 1.91957 12.3546 1.91957 11.365 2.22956Z" fill="#292D32"/>
<path d="M12.775 11.2996H12.875C13.2937 11.2832 13.6984 11.1439 14.0385 10.8991C14.3787 10.6543 14.6393 10.3149 14.788 9.92312C14.9367 9.53132 14.9668 9.10443 14.8747 8.69562C14.7825 8.28681 14.5722 7.91413 14.2698 7.624C13.9674 7.33387 13.5863 7.13909 13.1741 7.06393C12.7618 6.98877 12.3365 7.03655 11.9512 7.20131C11.5659 7.36606 11.2375 7.64053 11.007 7.99052C10.7766 8.34052 10.6541 8.75058 10.655 9.16965C10.6632 9.73028 10.8888 10.2658 11.2844 10.6632C11.6799 11.0606 12.2144 11.2888 12.775 11.2996Z" fill="#292D32"/>
<path d="M15.065 13.4096C14.4002 13.0168 13.6421 12.8096 12.87 12.8096C12.0978 12.8096 11.3398 13.0168 10.675 13.4096C10.4167 13.5645 10.2005 13.7805 10.0453 14.0385C9.89013 14.2966 9.80073 14.5888 9.78497 14.8896C9.79765 15.1897 9.88586 15.4818 10.0414 15.7387C10.197 15.9957 10.4149 16.2092 10.675 16.3596C11.3318 16.7677 12.0917 16.9794 12.865 16.9696C13.639 16.9855 14.4006 16.7734 15.055 16.3596C15.3132 16.2047 15.5294 15.9887 15.6846 15.7306C15.8398 15.4725 15.9292 15.1803 15.945 14.8796C15.9366 14.5797 15.8513 14.2869 15.6972 14.0295C15.5431 13.7721 15.3254 13.5586 15.065 13.4096Z" fill="#292D32"/>
</svg>
