<svg width="113" height="27" viewBox="0 0 113 27" fill="none" xmlns="http://www.w3.org/2000/svg">
<path d="M19.377 2.19743e-05H7.41104C6.43706 -0.00235263 5.47221 0.18775 4.57192 0.559409C3.67164 0.931068 2.85366 1.47695 2.165 2.1657C1.47634 2.85446 0.930583 3.67251 0.559045 4.57284C0.187508 5.47317 -0.00248155 6.43803 2.44717e-05 7.41201V19.378C-0.0023496 20.3519 0.187693 21.3167 0.55929 22.2169C0.930886 23.1171 1.47672 23.935 2.16537 24.6237C2.85402 25.3123 3.67195 25.8581 4.57217 26.2297C5.47238 26.6013 6.43714 26.7914 7.41104 26.789H19.377C20.351 26.7915 21.3159 26.6015 22.2162 26.23C23.1165 25.8585 23.9346 25.3127 24.6233 24.624C25.3121 23.9354 25.858 23.1174 26.2296 22.2171C26.6013 21.3168 26.7914 20.352 26.789 19.378V7.41201C26.7636 5.45412 25.9745 3.58358 24.59 2.19903C23.2054 0.814472 21.3349 0.0254086 19.377 2.19743e-05Z" fill="#5733D1"/>
<path d="M19.1981 8.88501H9.91107C9.79571 8.90134 9.67849 8.87289 9.58343 8.80551C9.48838 8.73812 9.42274 8.63691 9.39996 8.52264C9.37718 8.40837 9.39898 8.28972 9.46094 8.19104C9.52289 8.09236 9.62028 8.02114 9.73309 7.992H19.6451C19.5607 7.36505 19.2315 6.79701 18.7295 6.4121C18.2275 6.0272 17.5934 5.85673 16.9661 5.93798H16.8771L7.59106 7.54599C7.46498 7.53271 7.33828 7.56423 7.23309 7.63501H7.05511C6.5243 7.76793 6.05607 8.08095 5.73034 8.52066C5.40462 8.96036 5.2416 9.49947 5.2691 10.046V18.172C5.27989 18.7845 5.52798 19.3688 5.96112 19.802C6.39426 20.2351 6.9786 20.4832 7.59106 20.494H19.2911C19.9035 20.4832 20.4879 20.2351 20.9211 19.802C21.3542 19.3688 21.6023 18.7845 21.6131 18.172V11.207C21.6126 10.8943 21.5492 10.5849 21.4265 10.2972C21.3037 10.0096 21.1243 9.74966 20.8989 9.53292C20.6735 9.31619 20.4067 9.14708 20.1145 9.03576C19.8223 8.92444 19.5105 8.87318 19.1981 8.88501ZM17.4981 15.85C17.2685 15.85 17.044 15.7819 16.8531 15.6543C16.6622 15.5268 16.5133 15.3454 16.4255 15.1333C16.3376 14.9212 16.3146 14.6877 16.3594 14.4625C16.4042 14.2373 16.5148 14.0304 16.6771 13.868C16.8395 13.7057 17.0464 13.5951 17.2716 13.5503C17.4968 13.5055 17.7302 13.5285 17.9424 13.6164C18.1545 13.7042 18.3359 13.853 18.4634 14.044C18.591 14.2349 18.6591 14.4594 18.6591 14.689C18.6527 14.994 18.5286 15.2848 18.3128 15.5004C18.097 15.716 17.8061 15.8399 17.5011 15.846L17.4981 15.85Z" fill="white"/>
<path d="M55.356 9.83096L51.0699 24.297H46.2479L44.0159 15.814C43.8268 15.2073 43.7363 14.5743 43.7479 13.939H43.6589C43.5699 14.654 43.4799 15.279 43.3909 15.725L41.069 24.297H36.337L32.137 9.83096H36.78L38.8339 19.296C38.9471 19.8243 39.0068 20.3627 39.012 20.903H39.101C39.19 20.278 39.279 19.653 39.369 19.203L41.9589 9.82697H46.3339L48.6559 19.292C48.7462 19.8238 48.8056 20.3603 48.8339 20.899H48.923C48.9689 20.3569 49.0585 19.8195 49.191 19.292L51.1559 9.82697L55.356 9.83096Z" fill="#5733D1"/>
<path d="M76.1561 24.3849H71.6021V2.95496H76.1561V24.3849Z" fill="#5733D1"/>
<path d="M84.549 24.3849H79.998V2.95496H84.5521L84.549 24.3849Z" fill="#5733D1"/>
<path d="M101.783 18.403H92.05C92.229 20.546 93.568 21.528 96.158 21.528C97.6695 21.569 99.1598 21.1653 100.444 20.367V23.581C98.7714 24.3668 96.9331 24.7347 95.087 24.653C94.0652 24.7223 93.04 24.5841 92.0731 24.2465C91.1062 23.909 90.2177 23.3792 89.461 22.689C88.7788 21.9634 88.2525 21.1057 87.9146 20.1689C87.5766 19.2321 87.4342 18.236 87.496 17.242C87.4435 16.1935 87.6066 15.1454 87.9752 14.1624C88.3438 13.1794 88.9101 12.2825 89.639 11.527C90.3259 10.8313 91.1471 10.2825 92.0528 9.9141C92.9584 9.5457 93.9295 9.36535 94.907 9.38398C95.8255 9.32661 96.7457 9.46399 97.6074 9.78712C98.4691 10.1102 99.2527 10.6118 99.907 11.259C101.139 12.6605 101.779 14.4851 101.693 16.349V18.403H101.783ZM97.583 15.635C97.583 13.581 96.69 12.51 94.993 12.51C94.6331 12.5061 94.277 12.5845 93.9521 12.7392C93.6271 12.894 93.3418 13.121 93.118 13.403C92.5627 14.0243 92.2189 14.8058 92.136 15.635H97.583Z" fill="#5733D1"/>
<path d="M58.6539 14.027C59.5345 13.7687 60.4289 13.56 61.3329 13.402C62.3264 13.1728 63.3688 13.2992 64.2789 13.759C64.5452 13.9712 64.7568 14.244 64.8959 14.5548C65.0351 14.8655 65.0979 15.205 65.0789 15.545H62.4019C60.7418 15.4094 59.0823 15.815 57.6719 16.701C57.1989 17.0878 56.8232 17.5802 56.575 18.1385C56.3268 18.6969 56.2131 19.3057 56.2429 19.916C56.2162 20.8193 56.432 21.7133 56.8679 22.505C57.3651 23.1742 58.0058 23.7236 58.7429 24.113C59.6772 24.495 60.6809 24.6776 61.6899 24.649C64.3689 24.649 65.1719 23.22 65.1719 23.22V24.47H69.0119V16.17C69.0119 14.027 68.5649 12.33 67.4039 11.259C66.6965 10.6511 65.8719 10.1948 64.9811 9.91835C64.0903 9.64194 63.1522 9.55127 62.2249 9.65196C60.5406 9.74077 58.882 10.1028 57.3139 10.724L58.6539 14.027ZM64.9939 19.742C64.9939 19.742 64.8159 21.442 62.5829 21.442C61.9827 21.4822 61.3857 21.3252 60.8829 20.995C60.6777 20.8825 60.5095 20.713 60.3986 20.507C60.2877 20.301 60.2388 20.0672 60.2579 19.834C60.2579 18.762 61.1499 18.316 62.8469 18.316H64.9899L64.9939 19.742Z" fill="#5733D1"/>
<path d="M107.763 8.13298C107.459 8.14043 107.157 8.08025 106.879 7.95677C106.6 7.8333 106.353 7.64962 106.155 7.41899C105.933 7.21314 105.756 6.9645 105.633 6.68812C105.51 6.41175 105.445 6.11336 105.441 5.81099C105.433 5.50697 105.494 5.20508 105.617 4.92717C105.741 4.64925 105.924 4.40225 106.155 4.20399C106.361 3.98229 106.609 3.80461 106.886 3.68172C107.162 3.55882 107.46 3.49327 107.763 3.489C108.068 3.47315 108.373 3.52966 108.652 3.65391C108.931 3.77817 109.177 3.96664 109.37 4.20399C109.591 4.40966 109.769 4.6581 109.891 4.93431C110.014 5.21052 110.08 5.50877 110.084 5.81099C110.091 6.11516 110.031 6.41719 109.908 6.69527C109.784 6.97334 109.601 7.22054 109.37 7.41899C109.164 7.64034 108.916 7.81773 108.639 7.94044C108.363 8.06316 108.065 8.12864 107.763 8.13298Z" fill="#00EBB0"/>
<path d="M112.674 13.848V9.82996H102.941V13.759H105.441V19.474C105.441 21.439 105.976 22.9559 107.048 23.674C108.107 24.3586 109.363 24.6726 110.62 24.567C111.246 24.5816 111.873 24.5516 112.495 24.477H112.673V20.637H112.405C111.839 20.6826 111.271 20.6826 110.705 20.637C110.347 20.6292 110.002 20.5037 109.723 20.28C109.529 20.0242 109.434 19.7072 109.455 19.387V13.673L112.67 13.852L112.674 13.848Z" fill="#5733D1"/>
</svg>
