<svg width="151" height="37" viewBox="0 0 151 37" fill="none" xmlns="http://www.w3.org/2000/svg">
<path d="M26.2959 0.764673H10.3659C9.06938 0.761771 7.78502 1.01505 6.58664 1.50997C5.38826 2.0049 4.29951 2.7317 3.38284 3.64865C2.46618 4.56559 1.73965 5.65461 1.24509 6.85314C0.75053 8.05168 0.497651 9.3361 0.500947 10.6327V26.5617C0.497782 27.8582 0.750824 29.1425 1.24552 30.341C1.74021 31.5394 2.4668 32.6283 3.38358 33.545C4.30035 34.4618 5.38925 35.1884 6.58768 35.6831C7.78611 36.1778 9.07047 36.4308 10.367 36.4277H26.2959C27.5925 36.431 28.8771 36.178 30.0756 35.6834C31.2741 35.1888 32.3631 34.4622 33.28 33.5454C34.1969 32.6286 34.9235 31.5397 35.4183 30.3412C35.9131 29.1427 36.1661 27.8583 36.1629 26.5617V10.6327C36.1288 8.0263 35.0783 5.5363 33.2353 3.69308C31.3922 1.84986 28.9023 0.799117 26.2959 0.764673Z" fill="#5733D1"/>
<path d="M26.058 12.587H13.695C13.5409 12.6102 13.3836 12.5732 13.256 12.4836C13.1284 12.394 13.0401 12.2588 13.0095 12.1059C12.9789 11.953 13.0083 11.7942 13.0916 11.6624C13.1749 11.5306 13.3058 11.4359 13.457 11.398H26.657C26.5445 10.5636 26.1063 9.8076 25.4381 9.2953C24.7699 8.783 23.9261 8.55604 23.091 8.66401H22.972L10.605 10.808C10.4374 10.7902 10.2689 10.832 10.129 10.926H9.89102C9.18444 11.1031 8.56127 11.52 8.12777 12.1054C7.69428 12.6908 7.47732 13.4085 7.514 14.136V24.953C7.52839 25.7683 7.85868 26.5462 8.43527 27.1228C9.01185 27.6993 9.78972 28.0296 10.605 28.044H26.178C26.9933 28.0296 27.7712 27.6993 28.3478 27.1228C28.9244 26.5462 29.2546 25.7683 29.269 24.953V15.678C29.2681 15.2621 29.1835 14.8508 29.0203 14.4683C28.8571 14.0858 28.6185 13.74 28.3189 13.4516C28.0193 13.1632 27.6647 12.9381 27.2763 12.7895C26.8879 12.641 26.4736 12.5721 26.058 12.587ZM23.799 21.859C23.4936 21.8588 23.195 21.7681 22.9411 21.5982C22.6871 21.4284 22.4893 21.1871 22.3725 20.9048C22.2556 20.6225 22.2251 20.3119 22.2848 20.0123C22.3444 19.7127 22.4915 19.4375 22.7075 19.2215C22.9236 19.0055 23.1988 18.8584 23.4984 18.7987C23.798 18.7391 24.1086 18.7696 24.3908 18.8864C24.6731 19.0032 24.9144 19.2011 25.0843 19.455C25.2541 19.7089 25.3448 20.0075 25.345 20.313C25.3381 20.7208 25.1732 21.11 24.885 21.3985C24.5968 21.6871 24.2078 21.8525 23.8 21.86L23.799 21.859Z" fill="white"/>
<path d="M74.194 13.8517L68.488 33.1067H62.069L59.097 21.8127C58.8448 21.0039 58.7243 20.1598 58.74 19.3127H58.622C58.503 20.2637 58.383 21.0957 58.265 21.6907L55.174 33.1067H48.874L43.287 13.8487H49.468L52.203 26.4487C52.354 27.1519 52.4337 27.8685 52.441 28.5877H52.56C52.679 27.7557 52.798 26.9237 52.917 26.3287L56.365 13.8467H62.19L65.281 26.4467C65.4014 27.1545 65.4809 27.8687 65.519 28.5857H65.638C65.6992 27.8642 65.8185 27.1489 65.995 26.4467L68.61 13.8467L74.194 13.8517Z" fill="#5733D1"/>
<path d="M101.884 33.2282H95.821V4.69824H101.884V33.2282Z" fill="#5733D1"/>
<path d="M113.059 33.2282H106.999V4.69824H113.062L113.059 33.2282Z" fill="#5733D1"/>
<path d="M136.001 25.2628H123.04C123.279 28.1158 125.061 29.4238 128.509 29.4238C130.521 29.4786 132.505 28.9414 134.215 27.8788V32.1578C131.988 33.204 129.541 33.6937 127.083 33.5848C123.874 33.5848 121.377 32.7528 119.594 30.9698C118.686 30.0038 117.986 28.8621 117.536 27.615C117.086 26.3679 116.897 25.0419 116.979 23.7188C116.909 22.323 117.126 20.9277 117.617 19.6191C118.108 18.3105 118.862 17.1165 119.832 16.1108C120.747 15.1846 121.84 14.454 123.046 13.9635C124.252 13.4731 125.544 13.233 126.846 13.2578C128.069 13.1822 129.294 13.3658 130.442 13.7966C131.589 14.2274 132.632 14.8958 133.503 15.7578C135.143 17.6236 135.995 20.0526 135.88 22.5338V25.2678L136.001 25.2628ZM130.414 21.5778C130.414 18.8438 129.225 17.4168 126.966 17.4168C126.486 17.411 126.011 17.5151 125.578 17.7212C125.145 17.9273 124.764 18.2299 124.466 18.6058C123.727 19.4331 123.269 20.4737 123.159 21.5778H130.414Z" fill="#5733D1"/>
<path d="M78.584 19.4378C79.7565 19.094 80.9474 18.8162 82.151 18.6058C83.4737 18.3007 84.8614 18.4688 86.073 19.0808C86.4287 19.3626 86.7115 19.7257 86.8979 20.1395C87.0842 20.5532 87.1686 21.0057 87.144 21.4588H83.577C80.725 21.4588 78.704 21.9338 77.277 23.0038C76.6477 23.5189 76.1479 24.1745 75.818 24.9178C75.488 25.6611 75.3369 26.4715 75.377 27.2838C75.3413 28.4865 75.6286 29.6768 76.209 30.7308C76.8721 31.6219 77.7263 32.3531 78.709 32.8708C79.9527 33.3792 81.2889 33.622 82.632 33.5838C86.198 33.5838 87.268 31.6838 87.268 31.6838V33.3478H92.38V22.2918C92.38 19.4388 91.786 17.1798 90.24 15.7538C88.694 14.3278 86.556 13.4948 83.345 13.6138C81.1027 13.732 78.8946 14.2139 76.807 15.0408L78.584 19.4378ZM87.024 27.0458C87.024 27.0458 86.786 29.3048 83.815 29.3048C83.0175 29.3577 82.2244 29.1492 81.556 28.7108C81.2828 28.561 81.0589 28.3353 80.9112 28.0609C80.7636 27.7865 80.6986 27.4753 80.724 27.1648C80.724 25.7378 81.912 25.1438 84.171 25.1438H87.024V27.0458Z" fill="#5733D1"/>
<path d="M143.963 11.5928C143.558 11.6025 143.156 11.5223 142.786 11.3578C142.416 11.1933 142.087 10.9488 141.823 10.6418C141.528 10.3679 141.292 10.037 141.128 9.66921C140.965 9.30138 140.878 8.90425 140.872 8.50179C140.862 8.09707 140.942 7.69522 141.107 7.3253C141.271 6.95538 141.516 6.62662 141.823 6.36278C142.097 6.06787 142.428 5.83156 142.795 5.66811C143.163 5.50465 143.561 5.41743 143.963 5.41176C144.369 5.39041 144.775 5.46545 145.147 5.63072C145.519 5.79599 145.846 6.04683 146.103 6.36278C146.398 6.63648 146.634 6.96714 146.798 7.33479C146.961 7.70245 147.048 8.09947 147.054 8.50179C147.064 8.90664 146.983 9.30859 146.819 9.67867C146.654 10.0487 146.41 10.3777 146.103 10.6418C145.829 10.9366 145.498 11.1729 145.13 11.3364C144.763 11.4998 144.365 11.587 143.963 11.5928Z" fill="#00EBB0"/>
<path d="M150.5 19.2006V13.8506H137.543V19.0806H140.871V26.6886C140.871 29.3046 141.584 31.3246 143.011 32.2756C144.421 33.1869 146.093 33.605 147.766 33.4646C148.601 33.4846 149.437 33.4448 150.266 33.3456H150.504V28.2336H150.147C149.395 28.2941 148.64 28.2941 147.888 28.2336C147.412 28.2232 146.953 28.0563 146.581 27.7586C146.323 27.4182 146.196 26.996 146.224 26.5696V18.9626L150.504 19.2006H150.5Z" fill="#5733D1"/>
</svg>
