<svg width="256" height="256" viewBox="0 0 256 256" fill="none" xmlns="http://www.w3.org/2000/svg">
<path opacity="0.2" d="M208 64H176L160 40H96L80 64H48C43.7565 64 39.6869 65.6857 36.6863 68.6863C33.6857 71.6869 32 75.7565 32 80V192C32 196.243 33.6857 200.313 36.6863 203.314C39.6869 206.314 43.7565 208 48 208H208C212.243 208 216.313 206.314 219.314 203.314C222.314 200.313 224 196.243 224 192V80C224 75.7565 222.314 71.6869 219.314 68.6863C216.313 65.6857 212.243 64 208 64ZM128 168C120.88 168 113.92 165.889 107.999 161.933C102.079 157.977 97.4651 152.355 94.7403 145.777C92.0156 139.198 91.3027 131.96 92.6917 124.977C94.0808 117.993 97.5095 111.579 102.544 106.544C107.579 101.509 113.993 98.0808 120.977 96.6917C127.96 95.3027 135.198 96.0156 141.777 98.7403C148.355 101.465 153.977 106.079 157.933 111.999C161.889 117.92 164 124.88 164 132C164 141.548 160.207 150.705 153.456 157.456C146.705 164.207 137.548 168 128 168Z" fill="black"/>
<path d="M208 56.0003H180.3L166.7 35.6003C165.976 34.485 164.983 33.5702 163.812 32.9409C162.641 32.3116 161.329 31.9881 160 32.0003H96C94.6705 31.9881 93.3594 32.3116 92.1882 32.9409C91.0171 33.5702 90.0236 34.485 89.3 35.6003L75.7 56.0003H48C41.6429 56.0267 35.5537 58.5637 31.0585 63.0589C26.5633 67.554 24.0263 73.6432 24 80.0003V192C24.0263 198.357 26.5633 204.447 31.0585 208.942C35.5537 213.437 41.6429 215.974 48 216H208C214.357 215.974 220.446 213.437 224.941 208.942C229.437 204.447 231.974 198.357 232 192V80.0003C231.974 73.6432 229.437 67.554 224.941 63.0589C220.446 58.5637 214.357 56.0267 208 56.0003ZM216 192C216 194.122 215.157 196.157 213.657 197.657C212.157 199.157 210.122 200 208 200H48C45.8783 200 43.8434 199.157 42.3431 197.657C40.8429 196.157 40 194.122 40 192V80.0003C40 77.8786 40.8429 75.8438 42.3431 74.3435C43.8434 72.8432 45.8783 72.0003 48 72.0003H80C81.3295 72.0125 82.6406 71.689 83.8118 71.0597C84.983 70.4304 85.9764 69.5157 86.7 68.4003L100.3 48.0003H155.7L169.3 68.4003C170.024 69.5157 171.017 70.4304 172.188 71.0597C173.359 71.689 174.671 72.0125 176 72.0003H208C210.122 72.0003 212.157 72.8432 213.657 74.3435C215.157 75.8438 216 77.8786 216 80.0003V192Z" fill="black"/>
<path d="M128 88C119.298 88 110.791 90.5806 103.555 95.4153C96.3192 100.25 90.6796 107.122 87.3493 115.162C84.0191 123.202 83.1477 132.049 84.8455 140.584C86.5432 149.119 90.7338 156.959 96.8873 163.113C103.041 169.266 110.881 173.457 119.416 175.155C127.951 176.852 136.798 175.981 144.838 172.651C152.878 169.32 159.75 163.681 164.585 156.445C169.419 149.209 172 140.702 172 132C172 120.33 167.364 109.139 159.113 100.887C150.861 92.6357 139.67 88 128 88ZM128 160C122.462 160 117.049 158.358 112.444 155.281C107.839 152.204 104.251 147.831 102.131 142.715C100.012 137.599 99.4576 131.969 100.538 126.537C101.618 121.106 104.285 116.117 108.201 112.201C112.117 108.285 117.106 105.618 122.537 104.538C127.969 103.458 133.599 104.012 138.715 106.131C143.831 108.251 148.204 111.839 151.281 116.444C154.358 121.049 156 126.462 156 132C155.974 139.418 153.015 146.525 147.77 151.77C142.525 157.015 135.418 159.974 128 160Z" fill="black"/>
</svg>
